<svg width="367" height="221" viewBox="0 0 367 221" fill="none" xmlns="http://www.w3.org/2000/svg">
<g filter="url(#filter0_d_172:589)">
<rect x="16" y="16" width="335" height="189" rx="32" fill="white"/>
</g>
<path d="M45.5256 56L46.821 52.0199H53.1193L54.4148 56H58.3693L52.3523 38.5455H47.5966L41.571 56H45.5256ZM47.7585 49.1392L49.9062 42.5341H50.0426L52.1903 49.1392H47.7585ZM60.402 60.9091H64.0327V53.9034H64.1435C64.6463 54.9943 65.7457 56.2131 67.8594 56.2131C70.8423 56.2131 73.169 53.8523 73.169 49.4716C73.169 44.9716 70.7401 42.7386 67.8679 42.7386C65.6776 42.7386 64.6293 44.0426 64.1435 45.108H63.9815V42.9091H60.402V60.9091ZM63.956 49.4545C63.956 47.1193 64.9446 45.6278 66.7088 45.6278C68.5071 45.6278 69.4616 47.1875 69.4616 49.4545C69.4616 51.7386 68.4901 53.3239 66.7088 53.3239C64.9616 53.3239 63.956 51.7898 63.956 49.4545ZM75.5895 60.9091H79.2202V53.9034H79.331C79.8338 54.9943 80.9332 56.2131 83.0469 56.2131C86.0298 56.2131 88.3565 53.8523 88.3565 49.4716C88.3565 44.9716 85.9276 42.7386 83.0554 42.7386C80.8651 42.7386 79.8168 44.0426 79.331 45.108H79.169V42.9091H75.5895V60.9091ZM79.1435 49.4545C79.1435 47.1193 80.1321 45.6278 81.8963 45.6278C83.6946 45.6278 84.6491 47.1875 84.6491 49.4545C84.6491 51.7386 83.6776 53.3239 81.8963 53.3239C80.1491 53.3239 79.1435 51.7898 79.1435 49.4545ZM96.6918 56.2557C100.663 56.2557 103.135 53.5369 103.135 49.5057C103.135 45.4489 100.663 42.7386 96.6918 42.7386C92.7202 42.7386 90.2486 45.4489 90.2486 49.5057C90.2486 53.5369 92.7202 56.2557 96.6918 56.2557ZM96.7088 53.4432C94.8764 53.4432 93.9389 51.7642 93.9389 49.4801C93.9389 47.196 94.8764 45.5085 96.7088 45.5085C98.5071 45.5085 99.4446 47.196 99.4446 49.4801C99.4446 51.7642 98.5071 53.4432 96.7088 53.4432ZM105.496 56H109.126V42.9091H105.496V56ZM107.32 41.2216C108.402 41.2216 109.288 40.3949 109.288 39.3807C109.288 38.375 108.402 37.5483 107.32 37.5483C106.246 37.5483 105.359 38.375 105.359 39.3807C105.359 40.3949 106.246 41.2216 107.32 41.2216ZM115.665 48.4318C115.674 46.7443 116.68 45.7557 118.146 45.7557C119.603 45.7557 120.481 46.7102 120.472 48.3125V56H124.103V47.6648C124.103 44.6136 122.313 42.7386 119.586 42.7386C117.643 42.7386 116.237 43.6932 115.648 45.2188H115.495V42.9091H112.035V56H115.665V48.4318ZM133.928 42.9091H131.464V39.7727H127.834V42.9091H126.044V45.6364H127.834V52.4545C127.817 55.0199 129.564 56.2898 132.197 56.179C133.135 56.1449 133.8 55.9574 134.166 55.8381L133.595 53.1364C133.416 53.1705 133.033 53.2557 132.692 53.2557C131.967 53.2557 131.464 52.983 131.464 51.9773V45.6364H133.928V42.9091ZM136.293 56H139.923V48.142C139.923 46.6932 140.844 45.7301 142.054 45.7301C143.247 45.7301 144.048 46.5483 144.048 47.8352V56H147.568V48.0057C147.568 46.6506 148.344 45.7301 149.665 45.7301C150.824 45.7301 151.693 46.4545 151.693 47.9119V56H155.315V47.196C155.315 44.358 153.628 42.7386 151.19 42.7386C149.273 42.7386 147.781 43.7188 147.244 45.2188H147.108C146.69 43.7017 145.352 42.7386 143.554 42.7386C141.79 42.7386 140.452 43.6761 139.906 45.2188H139.753V42.9091H136.293V56ZM164.149 56.2557C167.388 56.2557 169.57 54.679 170.081 52.25L166.723 52.0284C166.357 53.0256 165.419 53.5455 164.209 53.5455C162.393 53.5455 161.243 52.3438 161.243 50.392V50.3835H170.158V49.3864C170.158 44.9375 167.464 42.7386 164.004 42.7386C160.152 42.7386 157.655 45.4744 157.655 49.5142C157.655 53.6648 160.118 56.2557 164.149 56.2557ZM161.243 48.1335C161.32 46.642 162.453 45.4489 164.064 45.4489C165.641 45.4489 166.732 46.5739 166.74 48.1335H161.243ZM176.158 48.4318C176.166 46.7443 177.172 45.7557 178.638 45.7557C180.095 45.7557 180.973 46.7102 180.964 48.3125V56H184.595V47.6648C184.595 44.6136 182.805 42.7386 180.078 42.7386C178.135 42.7386 176.729 43.6932 176.141 45.2188H175.987V42.9091H172.527V56H176.158V48.4318ZM194.42 42.9091H191.957V39.7727H188.326V42.9091H186.536V45.6364H188.326V52.4545C188.309 55.0199 190.056 56.2898 192.69 56.179C193.627 56.1449 194.292 55.9574 194.658 55.8381L194.087 53.1364C193.908 53.1705 193.525 53.2557 193.184 53.2557C192.46 53.2557 191.957 52.983 191.957 51.9773V45.6364H194.42V42.9091ZM202.339 56H205.97V48.5938C205.97 46.983 207.146 45.875 208.749 45.875C209.251 45.875 209.942 45.9602 210.283 46.071V42.8494C209.959 42.7727 209.507 42.7216 209.141 42.7216C207.675 42.7216 206.473 43.5739 205.996 45.1932H205.859V42.9091H202.339V56ZM217.516 56.2557C220.755 56.2557 222.937 54.679 223.448 52.25L220.09 52.0284C219.724 53.0256 218.786 53.5455 217.576 53.5455C215.761 53.5455 214.61 52.3438 214.61 50.392V50.3835H223.525V49.3864C223.525 44.9375 220.832 42.7386 217.371 42.7386C213.519 42.7386 211.022 45.4744 211.022 49.5142C211.022 53.6648 213.485 56.2557 217.516 56.2557ZM214.61 48.1335C214.687 46.642 215.82 45.4489 217.431 45.4489C219.008 45.4489 220.099 46.5739 220.107 48.1335H214.61ZM238.175 60.9091V42.9091H234.596V45.108H234.434C233.948 44.0426 232.9 42.7386 230.71 42.7386C227.837 42.7386 225.408 44.9716 225.408 49.4716C225.408 53.8523 227.735 56.2131 230.718 56.2131C232.832 56.2131 233.931 54.9943 234.434 53.9034H234.545V60.9091H238.175ZM234.621 49.4545C234.621 51.7898 233.616 53.3239 231.869 53.3239C230.087 53.3239 229.116 51.7386 229.116 49.4545C229.116 47.1875 230.07 45.6278 231.869 45.6278C233.633 45.6278 234.621 47.1193 234.621 49.4545ZM249.477 50.4261C249.485 52.1818 248.283 53.1023 246.979 53.1023C245.607 53.1023 244.721 52.1392 244.712 50.5966V42.9091H241.082V51.2443C241.09 54.304 242.88 56.1705 245.513 56.1705C247.482 56.1705 248.897 55.1562 249.485 53.6222H249.621V56H253.107V42.9091H249.477V50.4261ZM261.977 56.2557C265.216 56.2557 267.398 54.679 267.909 52.25L264.551 52.0284C264.185 53.0256 263.247 53.5455 262.037 53.5455C260.222 53.5455 259.071 52.3438 259.071 50.392V50.3835H267.986V49.3864C267.986 44.9375 265.293 42.7386 261.832 42.7386C257.98 42.7386 255.483 45.4744 255.483 49.5142C255.483 53.6648 257.946 56.2557 261.977 56.2557ZM259.071 48.1335C259.148 46.642 260.281 45.4489 261.892 45.4489C263.469 45.4489 264.56 46.5739 264.568 48.1335H259.071ZM281.247 46.642C280.923 44.2301 278.98 42.7386 275.673 42.7386C272.324 42.7386 270.116 44.2898 270.125 46.8125C270.116 48.7727 271.352 50.0426 273.909 50.554L276.176 51.0057C277.318 51.2358 277.838 51.6534 277.855 52.3097C277.838 53.0852 276.994 53.6392 275.724 53.6392C274.429 53.6392 273.568 53.0852 273.347 52.0199L269.776 52.2074C270.116 54.7131 272.247 56.2557 275.716 56.2557C279.108 56.2557 281.537 54.5256 281.545 51.9432C281.537 50.0511 280.301 48.9176 277.761 48.3977L275.392 47.9205C274.173 47.6562 273.722 47.2386 273.73 46.608C273.722 45.8239 274.608 45.3125 275.733 45.3125C276.994 45.3125 277.744 46.0028 277.923 46.8466L281.247 46.642ZM290.795 42.9091H288.332V39.7727H284.701V42.9091H282.911V45.6364H284.701V52.4545C284.684 55.0199 286.431 56.2898 289.065 56.179C290.002 56.1449 290.667 55.9574 291.033 55.8381L290.462 53.1364C290.283 53.1705 289.9 53.2557 289.559 53.2557C288.835 53.2557 288.332 52.983 288.332 51.9773V45.6364H290.795V42.9091Z" fill="black"/>
<path d="M42.0114 99H44.4716V95.2273H46.5398C49.2159 95.2273 50.7727 93.6307 50.7727 91.3068C50.7727 88.9943 49.2443 87.3636 46.6023 87.3636H42.0114V99ZM44.4716 93.2557V89.375H46.1307C47.5511 89.375 48.2386 90.1477 48.2386 91.3068C48.2386 92.4602 47.5511 93.2557 46.142 93.2557H44.4716ZM54.7295 99.1648C56.0193 99.1648 56.8545 98.6023 57.2807 97.7898H57.3489V99H59.6443V93.1136C59.6443 91.0341 57.883 90.1591 55.9398 90.1591C53.8489 90.1591 52.4739 91.1591 52.1386 92.75L54.3773 92.9318C54.542 92.3523 55.0591 91.9261 55.9284 91.9261C56.7523 91.9261 57.2239 92.3409 57.2239 93.0568V93.0909C57.2239 93.6534 56.6273 93.7273 55.1102 93.875C53.383 94.0341 51.8318 94.6136 51.8318 96.5625C51.8318 98.2898 53.0648 99.1648 54.7295 99.1648ZM55.4227 97.4943C54.6784 97.4943 54.1443 97.1477 54.1443 96.483C54.1443 95.8011 54.7068 95.4659 55.5591 95.3466C56.0875 95.2727 56.9511 95.1477 57.2409 94.9545V95.8807C57.2409 96.7955 56.4852 97.4943 55.4227 97.4943ZM66.3142 90.2727H64.6722V88.1818H62.2517V90.2727H61.0585V92.0909H62.2517V96.6364C62.2403 98.3466 63.4051 99.1932 65.1608 99.1193C65.7858 99.0966 66.229 98.9716 66.4733 98.892L66.0926 97.0909C65.9733 97.1136 65.7176 97.1705 65.4903 97.1705C65.0074 97.1705 64.6722 96.9886 64.6722 96.3182V92.0909H66.3142V90.2727ZM68.0409 99H70.4614V90.2727H68.0409V99ZM69.2568 89.1477C69.9784 89.1477 70.5693 88.5966 70.5693 87.9205C70.5693 87.25 69.9784 86.6989 69.2568 86.6989C68.5409 86.6989 67.95 87.25 67.95 87.9205C67.95 88.5966 68.5409 89.1477 69.2568 89.1477ZM76.5276 99.1705C78.6866 99.1705 80.1412 98.1193 80.4821 96.5L78.2435 96.3523C77.9991 97.017 77.3741 97.3636 76.5673 97.3636C75.3571 97.3636 74.5901 96.5625 74.5901 95.2614V95.2557H80.5332V94.5909C80.5332 91.625 78.7378 90.1591 76.431 90.1591C73.8628 90.1591 72.198 91.983 72.198 94.6761C72.198 97.4432 73.8401 99.1705 76.5276 99.1705ZM74.5901 93.7557C74.6412 92.7614 75.3969 91.9659 76.4707 91.9659C77.5219 91.9659 78.2491 92.7159 78.2548 93.7557H74.5901ZM84.6832 93.9545C84.6889 92.8295 85.3594 92.1705 86.3366 92.1705C87.3082 92.1705 87.8935 92.8068 87.8878 93.875V99H90.3082V93.4432C90.3082 91.4091 89.1151 90.1591 87.2969 90.1591C86.0014 90.1591 85.0639 90.7955 84.6719 91.8125H84.5696V90.2727H82.2628V99H84.6832V93.9545ZM97.008 90.2727H95.3659V88.1818H92.9455V90.2727H91.7523V92.0909H92.9455V96.6364C92.9341 98.3466 94.0989 99.1932 95.8545 99.1193C96.4795 99.0966 96.9227 98.9716 97.167 98.892L96.7864 97.0909C96.667 97.1136 96.4114 97.1705 96.1841 97.1705C95.7011 97.1705 95.3659 96.9886 95.3659 96.3182V92.0909H97.008V90.2727ZM100.149 93.0398C100.877 93.0398 101.507 92.4318 101.513 91.6761C101.507 90.9318 100.877 90.3239 100.149 90.3239C99.3994 90.3239 98.7801 90.9318 98.7858 91.6761C98.7801 92.4318 99.3994 93.0398 100.149 93.0398ZM100.149 99.1477C100.877 99.1477 101.507 98.5398 101.513 97.7841C101.507 97.0398 100.877 96.4318 100.149 96.4318C99.3994 96.4318 98.7801 97.0398 98.7858 97.7841C98.7801 98.5398 99.3994 99.1477 100.149 99.1477ZM113.198 87.3636V95.6818C113.198 97.1307 112.505 97.9091 111.289 97.9091C110.181 97.9091 109.38 97.2614 109.38 96.2727H107.993C107.993 98.0625 109.38 99.1591 111.289 99.1591C113.312 99.1591 114.607 97.9148 114.607 95.6818V87.3636H113.198ZM120.945 99.1818C123.308 99.1818 124.899 97.3864 124.899 94.6818C124.899 91.9545 123.308 90.1591 120.945 90.1591C118.581 90.1591 116.99 91.9545 116.99 94.6818C116.99 97.3864 118.581 99.1818 120.945 99.1818ZM120.945 97.9773C119.149 97.9773 118.331 96.4318 118.331 94.6818C118.331 92.9318 119.149 91.3636 120.945 91.3636C122.74 91.3636 123.558 92.9318 123.558 94.6818C123.558 96.4318 122.74 97.9773 120.945 97.9773ZM128.437 93.75C128.437 92.2273 129.409 91.3636 130.732 91.3636C131.994 91.3636 132.755 92.1591 132.755 93.5455V99H134.096V93.4545C134.096 91.2102 132.903 90.1591 131.119 90.1591C129.744 90.1591 128.96 90.733 128.551 91.6364H128.437V87.3636H127.096V99H128.437V93.75ZM138.04 93.75C138.04 92.2273 138.983 91.3636 140.267 91.3636C141.512 91.3636 142.267 92.1761 142.267 93.5455V99H143.608V93.4545C143.608 91.2273 142.421 90.1591 140.654 90.1591C139.336 90.1591 138.517 90.75 138.108 91.6364H137.995V90.2727H136.699V99H138.04V93.75ZM154.631 99C158.177 99 160.177 96.7955 160.177 93.1591C160.177 89.5455 158.177 87.3636 154.79 87.3636H151.04V99H154.631ZM152.449 97.75V88.6136H154.699C157.427 88.6136 158.813 90.3409 158.813 93.1591C158.813 96 157.427 97.75 154.54 97.75H152.449ZM166.054 99.1818C168.418 99.1818 170.009 97.3864 170.009 94.6818C170.009 91.9545 168.418 90.1591 166.054 90.1591C163.69 90.1591 162.099 91.9545 162.099 94.6818C162.099 97.3864 163.69 99.1818 166.054 99.1818ZM166.054 97.9773C164.259 97.9773 163.44 96.4318 163.44 94.6818C163.44 92.9318 164.259 91.3636 166.054 91.3636C167.849 91.3636 168.668 92.9318 168.668 94.6818C168.668 96.4318 167.849 97.9773 166.054 97.9773ZM175.864 99.1818C177.637 99.1818 178.933 98.2955 179.342 96.9773L178.046 96.6136C177.705 97.5227 176.916 97.9773 175.864 97.9773C174.291 97.9773 173.205 96.9602 173.143 95.0909H179.478V94.5227C179.478 91.2727 177.546 90.1591 175.728 90.1591C173.364 90.1591 171.796 92.0227 171.796 94.7045C171.796 97.3864 173.342 99.1818 175.864 99.1818ZM173.143 93.9318C173.234 92.5739 174.194 91.3636 175.728 91.3636C177.183 91.3636 178.114 92.4545 178.114 93.9318H173.143ZM46.1364 120C49.6818 120 51.8295 117.807 51.8295 114.17C51.8295 110.545 49.6818 108.364 46.1705 108.364H42.0114V120H46.1364ZM44.4716 117.892V110.472H46.0398C48.2216 110.472 49.375 111.585 49.375 114.17C49.375 116.767 48.2216 117.892 46.0341 117.892H44.4716ZM56.2452 120.165C57.5349 120.165 58.3702 119.602 58.7963 118.79H58.8645V120H61.1599V114.114C61.1599 112.034 59.3986 111.159 57.4554 111.159C55.3645 111.159 53.9895 112.159 53.6543 113.75L55.8929 113.932C56.0577 113.352 56.5747 112.926 57.444 112.926C58.2679 112.926 58.7395 113.341 58.7395 114.057V114.091C58.7395 114.653 58.1429 114.727 56.6259 114.875C54.8986 115.034 53.3474 115.614 53.3474 117.562C53.3474 119.29 54.5804 120.165 56.2452 120.165ZM56.9384 118.494C56.194 118.494 55.6599 118.148 55.6599 117.483C55.6599 116.801 56.2224 116.466 57.0747 116.347C57.6031 116.273 58.4668 116.148 58.7565 115.955V116.881C58.7565 117.795 58.0009 118.494 56.9384 118.494ZM67.8298 111.273H66.1878V109.182H63.7673V111.273H62.5741V113.091H63.7673V117.636C63.756 119.347 64.9207 120.193 66.6764 120.119C67.3014 120.097 67.7446 119.972 67.9889 119.892L67.6082 118.091C67.4889 118.114 67.2332 118.17 67.006 118.17C66.523 118.17 66.1878 117.989 66.1878 117.318V113.091H67.8298V111.273ZM73.4401 120.17C75.5991 120.17 77.0537 119.119 77.3946 117.5L75.156 117.352C74.9116 118.017 74.2866 118.364 73.4798 118.364C72.2696 118.364 71.5026 117.562 71.5026 116.261V116.256H77.4457V115.591C77.4457 112.625 75.6503 111.159 73.3435 111.159C70.7753 111.159 69.1105 112.983 69.1105 115.676C69.1105 118.443 70.7526 120.17 73.4401 120.17ZM71.5026 114.756C71.5537 113.761 72.3094 112.966 73.3832 112.966C74.4344 112.966 75.1616 113.716 75.1673 114.756H71.5026ZM80.5901 114.04C81.3173 114.04 81.948 113.432 81.9537 112.676C81.948 111.932 81.3173 111.324 80.5901 111.324C79.8401 111.324 79.2207 111.932 79.2264 112.676C79.2207 113.432 79.8401 114.04 80.5901 114.04ZM80.5901 120.148C81.3173 120.148 81.948 119.54 81.9537 118.784C81.948 118.04 81.3173 117.432 80.5901 117.432C79.8401 117.432 79.2207 118.04 79.2264 118.784C79.2207 119.54 79.8401 120.148 80.5901 120.148ZM93.0705 108.364H91.6614L88.7523 110.295V111.727L91.5932 109.841H91.6614V120H93.0705V108.364ZM100.658 108.364H99.2489L96.3398 110.295V111.727L99.1807 109.841H99.2489V120H100.658V108.364ZM105.155 120.091C105.717 120.091 106.177 119.631 106.177 119.068C106.177 118.506 105.717 118.045 105.155 118.045C104.592 118.045 104.132 118.506 104.132 119.068C104.132 119.631 104.592 120.091 105.155 120.091ZM105.155 113.614C105.717 113.614 106.177 113.153 106.177 112.591C106.177 112.028 105.717 111.568 105.155 111.568C104.592 111.568 104.132 112.028 104.132 112.591C104.132 113.153 104.592 113.614 105.155 113.614ZM112.506 120.159C115.074 120.159 116.552 117.983 116.552 114.182C116.552 110.409 115.052 108.205 112.506 108.205C109.961 108.205 108.461 110.409 108.461 114.182C108.461 117.983 109.938 120.159 112.506 120.159ZM112.506 118.909C110.813 118.909 109.824 117.21 109.824 114.182C109.824 111.159 110.824 109.432 112.506 109.432C114.188 109.432 115.188 111.159 115.188 114.182C115.188 117.21 114.199 118.909 112.506 118.909ZM122.656 120.159C125.224 120.159 126.702 117.983 126.702 114.182C126.702 110.409 125.202 108.205 122.656 108.205C120.111 108.205 118.611 110.409 118.611 114.182C118.611 117.983 120.088 120.159 122.656 120.159ZM122.656 118.909C120.963 118.909 119.974 117.21 119.974 114.182C119.974 111.159 120.974 109.432 122.656 109.432C124.338 109.432 125.338 111.159 125.338 114.182C125.338 117.21 124.349 118.909 122.656 118.909ZM134.034 114.386H128.943V115.636H134.034V114.386ZM140.611 108.364H139.202L136.293 110.295V111.727L139.134 109.841H139.202V120H140.611V108.364ZM144.108 120H151.449V118.75H146.039V118.659L148.653 115.864C150.653 113.722 151.244 112.722 151.244 111.432C151.244 109.636 149.789 108.205 147.744 108.205C145.704 108.205 144.153 109.591 144.153 111.636H145.494C145.494 110.312 146.352 109.432 147.699 109.432C148.96 109.432 149.926 110.205 149.926 111.432C149.926 112.506 149.295 113.301 147.949 114.773L144.108 118.977V120ZM154.945 120.091C155.508 120.091 155.968 119.631 155.968 119.068C155.968 118.506 155.508 118.045 154.945 118.045C154.383 118.045 153.922 118.506 153.922 119.068C153.922 119.631 154.383 120.091 154.945 120.091ZM154.945 113.614C155.508 113.614 155.968 113.153 155.968 112.591C155.968 112.028 155.508 111.568 154.945 111.568C154.383 111.568 153.922 112.028 153.922 112.591C153.922 113.153 154.383 113.614 154.945 113.614ZM162.297 120.159C164.865 120.159 166.342 117.983 166.342 114.182C166.342 110.409 164.842 108.205 162.297 108.205C159.751 108.205 158.251 110.409 158.251 114.182C158.251 117.983 159.729 120.159 162.297 120.159ZM162.297 118.909C160.604 118.909 159.615 117.21 159.615 114.182C159.615 111.159 160.615 109.432 162.297 109.432C163.979 109.432 164.979 111.159 164.979 114.182C164.979 117.21 163.99 118.909 162.297 118.909ZM172.447 120.159C175.015 120.159 176.492 117.983 176.492 114.182C176.492 110.409 174.992 108.205 172.447 108.205C169.901 108.205 168.401 110.409 168.401 114.182C168.401 117.983 169.879 120.159 172.447 120.159ZM172.447 118.909C170.754 118.909 169.765 117.21 169.765 114.182C169.765 111.159 170.765 109.432 172.447 109.432C174.129 109.432 175.129 111.159 175.129 114.182C175.129 117.21 174.14 118.909 172.447 118.909ZM180.418 118.409H178.963L178.895 119.045C178.73 120.585 178.407 122.119 178.259 122.841H179.282C179.554 122.068 180.134 120.318 180.327 119.023L180.418 118.409ZM191.77 108.364H190.361L187.452 110.295V111.727L190.293 109.841H190.361V120H191.77V108.364ZM198.903 120.159C201.119 120.159 202.744 118.523 202.744 116.295C202.744 114.04 201.176 112.386 199.04 112.386C198.256 112.386 197.494 112.665 197.017 113.045H196.949L197.358 109.614H202.222V108.364H196.176L195.472 114.091L196.79 114.25C197.273 113.903 198.097 113.653 198.812 113.659C200.295 113.67 201.381 114.795 201.381 116.318C201.381 117.812 200.335 118.909 198.903 118.909C197.71 118.909 196.761 118.142 196.653 117.091H195.29C195.375 118.864 196.903 120.159 198.903 120.159ZM219.233 108.364H217.847V117.523H217.733L211.37 108.364H210.006V120H211.415V110.864H211.529L217.87 120H219.233V108.364ZM225.566 120.182C227.93 120.182 229.521 118.386 229.521 115.682C229.521 112.955 227.93 111.159 225.566 111.159C223.203 111.159 221.612 112.955 221.612 115.682C221.612 118.386 223.203 120.182 225.566 120.182ZM225.566 118.977C223.771 118.977 222.953 117.432 222.953 115.682C222.953 113.932 223.771 112.364 225.566 112.364C227.362 112.364 228.18 113.932 228.18 115.682C228.18 117.432 227.362 118.977 225.566 118.977ZM238.542 111.273H237.087L234.678 118.227H234.587L232.178 111.273H230.724L233.951 120H235.314L238.542 111.273ZM241.915 118.409H240.46L240.392 119.045C240.227 120.585 239.903 122.119 239.756 122.841H240.778C241.051 122.068 241.631 120.318 241.824 119.023L241.915 118.409ZM249.176 120H256.517V118.75H251.108V118.659L253.722 115.864C255.722 113.722 256.313 112.722 256.313 111.432C256.313 109.636 254.858 108.205 252.813 108.205C250.773 108.205 249.222 109.591 249.222 111.636H250.563C250.563 110.312 251.421 109.432 252.767 109.432C254.029 109.432 254.995 110.205 254.995 111.432C254.995 112.506 254.364 113.301 253.017 114.773L249.176 118.977V120ZM262.809 120.159C265.378 120.159 266.855 117.983 266.855 114.182C266.855 110.409 265.355 108.205 262.809 108.205C260.264 108.205 258.764 110.409 258.764 114.182C258.764 117.983 260.241 120.159 262.809 120.159ZM262.809 118.909C261.116 118.909 260.128 117.21 260.128 114.182C260.128 111.159 261.128 109.432 262.809 109.432C264.491 109.432 265.491 111.159 265.491 114.182C265.491 117.21 264.503 118.909 262.809 118.909ZM269.164 120H276.505V118.75H271.096V118.659L273.709 115.864C275.709 113.722 276.3 112.722 276.3 111.432C276.3 109.636 274.846 108.205 272.8 108.205C270.761 108.205 269.209 109.591 269.209 111.636H270.55C270.55 110.312 271.408 109.432 272.755 109.432C274.016 109.432 274.982 110.205 274.982 111.432C274.982 112.506 274.351 113.301 273.005 114.773L269.164 118.977V120ZM283.092 108.364H281.683L278.774 110.295V111.727L281.615 109.841H281.683V120H283.092V108.364Z" fill="black"/>
<rect x="289" y="148" width="38" height="38" rx="19" fill="#2D4DA1"/>
<path d="M318.232 160.257C318.317 160.338 318.384 160.435 318.43 160.541C318.476 160.647 318.5 160.761 318.5 160.876C318.5 160.991 318.476 161.105 318.43 161.212C318.384 161.318 318.317 161.414 318.232 161.496L305.451 173.743C305.366 173.824 305.265 173.889 305.154 173.933C305.044 173.977 304.925 174 304.805 174C304.684 174 304.566 173.977 304.455 173.933C304.344 173.889 304.243 173.824 304.158 173.743L297.768 167.619C297.596 167.455 297.5 167.232 297.5 167C297.5 166.768 297.596 166.545 297.768 166.381C297.939 166.216 298.172 166.124 298.414 166.124C298.657 166.124 298.889 166.216 299.06 166.381L304.805 171.887L316.939 160.257C317.024 160.176 317.125 160.111 317.236 160.067C317.346 160.023 317.465 160 317.585 160C317.706 160 317.824 160.023 317.935 160.067C318.046 160.111 318.147 160.176 318.232 160.257Z" fill="white"/>
<path d="M62.9091 172.5H64.3182V168.25H66.8636C69.5739 168.25 70.7955 166.602 70.7955 164.545C70.7955 162.489 69.5739 160.864 66.8409 160.864H62.9091V172.5ZM64.3182 167V162.114H66.7955C68.6875 162.114 69.4091 163.148 69.4091 164.545C69.4091 165.943 68.6875 167 66.8182 167H64.3182ZM73.0335 172.5H74.3744V166.977C74.3744 165.795 75.3062 164.932 76.579 164.932C76.9369 164.932 77.3062 165 77.3972 165.023V163.659C77.2437 163.648 76.8915 163.636 76.6926 163.636C75.6472 163.636 74.7381 164.227 74.4199 165.091H74.329V163.773H73.0335V172.5ZM82.4165 172.682C84.7801 172.682 86.371 170.886 86.371 168.182C86.371 165.455 84.7801 163.659 82.4165 163.659C80.0528 163.659 78.4619 165.455 78.4619 168.182C78.4619 170.886 80.0528 172.682 82.4165 172.682ZM82.4165 171.477C80.621 171.477 79.8028 169.932 79.8028 168.182C79.8028 166.432 80.621 164.864 82.4165 164.864C84.2119 164.864 85.0301 166.432 85.0301 168.182C85.0301 169.932 84.2119 171.477 82.4165 171.477ZM88.5679 175.773H89.9088V171.159H90.0224C90.3179 171.636 90.8861 172.682 92.5679 172.682C94.7497 172.682 96.2724 170.932 96.2724 168.159C96.2724 165.409 94.7497 163.659 92.5452 163.659C90.8406 163.659 90.3179 164.705 90.0224 165.159H89.8634V163.773H88.5679V175.773ZM89.8861 168.136C89.8861 166.182 90.7497 164.864 92.3861 164.864C94.0906 164.864 94.9315 166.295 94.9315 168.136C94.9315 170 94.0679 171.477 92.3861 171.477C90.7724 171.477 89.8861 170.114 89.8861 168.136ZM102.013 172.682C104.377 172.682 105.968 170.886 105.968 168.182C105.968 165.455 104.377 163.659 102.013 163.659C99.6497 163.659 98.0588 165.455 98.0588 168.182C98.0588 170.886 99.6497 172.682 102.013 172.682ZM102.013 171.477C100.218 171.477 99.3997 169.932 99.3997 168.182C99.3997 166.432 100.218 164.864 102.013 164.864C103.809 164.864 104.627 166.432 104.627 168.182C104.627 169.932 103.809 171.477 102.013 171.477ZM114.347 165.727C113.926 164.489 112.983 163.659 111.256 163.659C109.415 163.659 108.051 164.705 108.051 166.182C108.051 167.386 108.767 168.193 110.369 168.568L111.824 168.909C112.705 169.114 113.119 169.534 113.119 170.136C113.119 170.886 112.324 171.5 111.074 171.5C109.977 171.5 109.29 171.028 109.051 170.091L107.778 170.409C108.091 171.892 109.312 172.682 111.097 172.682C113.125 172.682 114.506 171.574 114.506 170.068C114.506 168.852 113.744 168.085 112.188 167.705L110.892 167.386C109.858 167.131 109.392 166.784 109.392 166.114C109.392 165.364 110.188 164.818 111.256 164.818C112.426 164.818 112.909 165.466 113.142 166.068L114.347 165.727ZM120.333 172.682C122.106 172.682 123.401 171.795 123.811 170.477L122.515 170.114C122.174 171.023 121.384 171.477 120.333 171.477C118.759 171.477 117.674 170.46 117.612 168.591H123.947V168.023C123.947 164.773 122.015 163.659 120.197 163.659C117.833 163.659 116.265 165.523 116.265 168.205C116.265 170.886 117.811 172.682 120.333 172.682ZM117.612 167.432C117.703 166.074 118.663 164.864 120.197 164.864C121.651 164.864 122.583 165.955 122.583 167.432H117.612ZM132.128 167.25C132.128 165.727 133.071 164.864 134.355 164.864C135.599 164.864 136.355 165.676 136.355 167.045V172.5H137.696V166.955C137.696 164.727 136.508 163.659 134.741 163.659C133.423 163.659 132.605 164.25 132.196 165.136H132.082V163.773H130.787V172.5H132.128V167.25ZM143.955 172.682C145.728 172.682 147.023 171.795 147.432 170.477L146.137 170.114C145.796 171.023 145.006 171.477 143.955 171.477C142.381 171.477 141.296 170.46 141.234 168.591H147.569V168.023C147.569 164.773 145.637 163.659 143.819 163.659C141.455 163.659 139.887 165.523 139.887 168.205C139.887 170.886 141.432 172.682 143.955 172.682ZM141.234 167.432C141.324 166.074 142.285 164.864 143.819 164.864C145.273 164.864 146.205 165.955 146.205 167.432H141.234ZM151.736 172.5H153.054L154.963 165.795H155.099L157.009 172.5H158.327L160.986 163.773H159.577L157.69 170.432H157.599L155.759 163.773H154.327L152.463 170.455H152.372L150.486 163.773H149.077L151.736 172.5ZM171.354 163.773H169.49V161.682H168.149V163.773H166.831V164.909H168.149V170.364C168.149 171.886 169.377 172.614 170.513 172.614C171.013 172.614 171.331 172.523 171.513 172.455L171.24 171.25C171.127 171.273 170.945 171.318 170.649 171.318C170.059 171.318 169.49 171.136 169.49 170V164.909H171.354V163.773ZM173.521 172.5H174.862V163.773H173.521V172.5ZM174.203 162.318C174.726 162.318 175.157 161.909 175.157 161.409C175.157 160.909 174.726 160.5 174.203 160.5C173.68 160.5 173.248 160.909 173.248 161.409C173.248 161.909 173.68 162.318 174.203 162.318ZM177.468 172.5H178.809V167.045C178.809 165.767 179.741 164.864 180.786 164.864C181.803 164.864 182.513 165.528 182.513 166.523V172.5H183.877V166.818C183.877 165.693 184.582 164.864 185.809 164.864C186.763 164.864 187.582 165.369 187.582 166.659V172.5H188.922V166.659C188.922 164.608 187.82 163.659 186.263 163.659C185.013 163.659 184.099 164.233 183.65 165.136H183.559C183.127 164.205 182.366 163.659 181.218 163.659C180.082 163.659 179.241 164.205 178.877 165.136H178.763V163.773H177.468V172.5ZM195.183 172.682C196.956 172.682 198.251 171.795 198.661 170.477L197.365 170.114C197.024 171.023 196.234 171.477 195.183 171.477C193.609 171.477 192.524 170.46 192.462 168.591H198.797V168.023C198.797 164.773 196.865 163.659 195.047 163.659C192.683 163.659 191.115 165.523 191.115 168.205C191.115 170.886 192.661 172.682 195.183 172.682ZM192.462 167.432C192.553 166.074 193.513 164.864 195.047 164.864C196.501 164.864 197.433 165.955 197.433 167.432H192.462Z" fill="black"/>
<rect x="40.5" y="148.5" width="181" height="37" rx="18.5" stroke="#2D4DA1"/>
<defs>
<filter id="filter0_d_172:589" x="0" y="0" width="367" height="221" filterUnits="userSpaceOnUse" color-interpolation-filters="sRGB">
<feFlood flood-opacity="0" result="BackgroundImageFix"/>
<feColorMatrix in="SourceAlpha" type="matrix" values="0 0 0 0 0 0 0 0 0 0 0 0 0 0 0 0 0 0 127 0" result="hardAlpha"/>
<feOffset/>
<feGaussianBlur stdDeviation="8"/>
<feComposite in2="hardAlpha" operator="out"/>
<feColorMatrix type="matrix" values="0 0 0 0 0 0 0 0 0 0 0 0 0 0 0 0 0 0 0.05 0"/>
<feBlend mode="normal" in2="BackgroundImageFix" result="effect1_dropShadow_172:589"/>
<feBlend mode="normal" in="SourceGraphic" in2="effect1_dropShadow_172:589" result="shape"/>
</filter>
</defs>
</svg>
