<svg width="24" height="19" viewBox="0 0 24 19" fill="none" xmlns="http://www.w3.org/2000/svg">
<path fill-rule="evenodd" clip-rule="evenodd" d="M-3.74669e-08 1.16892C-2.75301e-08 0.858906 0.0903053 0.561586 0.251051 0.342369C0.411797 0.123153 0.629814 -1.39313e-06 0.857143 -1.37958e-06L23.1429 -5.10954e-08C23.3702 -3.75441e-08 23.5882 0.123155 23.7489 0.342371C23.9097 0.561587 24 0.858908 24 1.16893C24 1.47894 23.9097 1.77627 23.7489 1.99548C23.5882 2.2147 23.3702 2.33785 23.1429 2.33785L0.857143 2.33785C0.629814 2.33785 0.411796 2.2147 0.251051 1.99548C0.0903053 1.77626 -4.74037e-08 1.47894 -3.74669e-08 1.16892Z" fill="black"/>
<path fill-rule="evenodd" clip-rule="evenodd" d="M-3.74669e-08 9.35138C-2.75301e-08 9.04137 0.0903053 8.74405 0.251051 8.52483C0.411797 8.30562 0.629814 8.18246 0.857143 8.18246L23.1429 8.18246C23.3702 8.18246 23.5882 8.30562 23.7489 8.52483C23.9097 8.74405 24 9.04137 24 9.35139C24 9.6614 23.9097 9.95872 23.7489 10.1779C23.5882 10.3972 23.3702 10.5203 23.1429 10.5203L0.857143 10.5203C0.629814 10.5203 0.411796 10.3972 0.251051 10.1779C0.0903053 9.95872 -4.74037e-08 9.6614 -3.74669e-08 9.35138Z" fill="black"/>
<path fill-rule="evenodd" clip-rule="evenodd" d="M-3.74669e-08 17.5339C-2.75301e-08 17.2238 0.0903053 16.9265 0.251051 16.7073C0.411797 16.4881 0.629814 16.3649 0.857143 16.3649L23.1429 16.3649C23.3702 16.3649 23.5882 16.4881 23.7489 16.7073C23.9097 16.9265 24 17.2239 24 17.5339C24 17.8439 23.9097 18.1412 23.7489 18.3604C23.5882 18.5796 23.3702 18.7028 23.1429 18.7028L0.857143 18.7028C0.629814 18.7028 0.411796 18.5796 0.251051 18.3604C0.0903053 18.1412 -4.74037e-08 17.8439 -3.74669e-08 17.5339Z" fill="black"/>
</svg>
